<?xml version="1.0"?>
<svg version="1.1" xmlns="http://www.w3.org/2000/svg" xmlns:xlink="http://www.w3.org/1999/xlink" width="425.195" height="283.465">
    <desc iVinci="yes" version="4.6" gridStep="20" showGrid="no" snapToGrid="no" codePlatform="0"/>
    <g id="Layer1" name="Layer 1" opacity="1">
        <g id="Shape1">
            <desc shapeID="1" type="0" basicInfo-basicType="0" basicInfo-roundedRectRadius="12" basicInfo-polygonSides="6" basicInfo-starPoints="5" bounding="rect(-187.931,-114.654,375.861,229.308)" text="" font-familyName="" font-pixelSize="20" font-bold="0" font-underline="0" font-alignment="1" strokeStyle="0" markerStart="0" markerEnd="0" shadowEnabled="0" shadowOffsetX="0" shadowOffsetY="2" shadowBlur="4" shadowOpacity="160" blurEnabled="0" blurRadius="4" transform="matrix(1,0,0,1,212.598,141.733)" pers-center="0,0" pers-size="0,0" pers-start="0,0" pers-end="0,0" locked="0" mesh="" flag=""/>
            <path id="shapePath1" d="M373.435,256.387 L373.41,246.469 L52.196,246.494 L52.221,256.361 L34.989,256.386 L34.964,246.468 L24.692,246.493 L24.667,229.261 L34.989,229.236 L34.964,53.842 L24.692,53.867 L24.667,36.635 L34.989,36.61 L34.964,27.104 L52.196,27.079 L52.221,36.635 L373.435,36.61 L373.41,27.104 L390.642,27.079 L390.667,36.635 L400.503,36.61 L400.528,53.842 L390.641,53.867 L390.666,229.262 L400.502,229.237 L400.527,246.469 L390.64,246.494 L390.665,256.387 L373.435,256.387 M52.221,229.262 L373.434,229.237 L373.409,53.842 L52.221,53.867 L52.221,229.262 Z" style="stroke:none;fill-rule:nonzero;fill:#000000;fill-opacity:1;"/>
        </g>
        <g id="Shape2">
            <desc shapeID="2" type="0" basicInfo-basicType="0" basicInfo-roundedRectRadius="12" basicInfo-polygonSides="6" basicInfo-starPoints="5" bounding="rect(-187.956,-114.679,375.913,229.358)" text="" font-familyName="" font-pixelSize="20" font-bold="0" font-underline="0" font-alignment="1" strokeStyle="0" markerStart="0" markerEnd="0" shadowEnabled="0" shadowOffsetX="0" shadowOffsetY="2" shadowBlur="4" shadowOpacity="160" blurEnabled="0" blurRadius="4" transform="matrix(1,0,0,1,212.598,141.733)" pers-center="0,0" pers-size="0,0" pers-start="0,0" pers-end="0,0" locked="0" mesh="" flag=""/>
            <path id="shapePath2" d="M390.642,27.104 L390.642,36.635 L400.503,36.635 L400.503,53.842 L390.642,53.842 L390.642,229.262 L400.503,229.262 L400.503,246.469 L390.642,246.469 L390.642,256.362 L373.435,256.362 L373.435,246.469 L52.196,246.469 L52.196,256.362 L34.989,256.362 L34.989,246.469 L24.692,246.469 L24.692,229.262 L34.989,229.262 L34.989,53.842 L24.692,53.842 L24.692,36.635 L34.989,36.635 L34.989,27.104 L52.196,27.104 L52.196,36.635 L373.435,36.635 L373.435,27.104 L390.642,27.104 M52.197,229.262 L373.435,229.262 L373.435,53.842 L52.197,53.842 L52.197,229.262 M390.692,27.054 L390.642,27.054 L373.435,27.054 L373.385,27.054 L373.385,27.104 L373.385,36.585 L52.245,36.585 L52.245,27.104 L52.245,27.054 L52.195,27.054 L34.989,27.054 L34.939,27.054 L34.939,27.104 L34.939,36.585 L24.692,36.585 L24.642,36.585 L24.642,36.635 L24.642,53.842 L24.642,53.892 L24.692,53.892 L34.939,53.892 L34.939,229.212 L24.692,229.212 L24.642,229.212 L24.642,229.262 L24.642,246.469 L24.642,246.519 L24.692,246.519 L34.939,246.519 L34.939,256.362 L34.939,256.412 L34.989,256.412 L52.196,256.412 L52.246,256.412 L52.246,256.362 L52.246,246.519 L373.386,246.519 L373.386,256.362 L373.386,256.412 L373.436,256.412 L390.643,256.412 L390.693,256.412 L390.693,256.362 L390.693,246.519 L400.505,246.519 L400.555,246.519 L400.555,246.469 L400.555,229.262 L400.555,229.212 L400.505,229.212 L390.693,229.212 L390.693,53.892 L400.505,53.892 L400.555,53.892 L400.555,53.842 L400.555,36.635 L400.555,36.585 L400.505,36.585 L390.693,36.585 L390.693,27.104 L390.693,27.054 L390.692,27.054 M52.246,53.892 L373.385,53.892 L373.385,229.212 L52.246,229.212 L52.246,53.892 Z" style="stroke:none;fill-rule:nonzero;fill:#ffffff;fill-opacity:1;"/>
        </g>
        <g id="Shape3">
            <desc shapeID="3" type="0" basicInfo-basicType="0" basicInfo-roundedRectRadius="12" basicInfo-polygonSides="6" basicInfo-starPoints="5" bounding="rect(-18.5835,-38.0975,37.167,76.195)" text="" font-familyName="" font-pixelSize="20" font-bold="0" font-underline="0" font-alignment="1" strokeStyle="0" markerStart="0" markerEnd="0" shadowEnabled="0" shadowOffsetX="0" shadowOffsetY="2" shadowBlur="4" shadowOpacity="160" blurEnabled="0" blurRadius="4" transform="matrix(1,0,0,1,123.479,105.1)" pers-center="0,0" pers-size="0,0" pers-start="0,0" pers-end="0,0" locked="0" mesh="" flag=""/>
            <path id="shapePath3" d="M132.025,143.198 C130.808,143.198 129.549,143.198 128.423,143.085 C128.275,143.075 128.093,143.066 127.883,143.057 C125.911,142.963 121.294,142.744 117.724,139.479 C113.421,135.714 113.431,130.216 113.441,124.898 L113.442,95.935 L104.92,95.96 L104.895,85.362 L113.467,85.337 L113.442,67.028 L130.563,67.003 L130.588,85.474 L142.037,85.449 L142.062,96.046 L130.563,96.071 L130.588,122.364 L130.583,123.361 C130.57,125.145 130.562,126.222 131.036,127.077 C131.968,128.839 134.354,128.976 135.063,128.976 C136.075,128.976 137.086,128.948 138.099,128.919 C139.111,128.891 140.124,128.863 141.136,128.863 L141.161,142.273 C139.576,142.609 135.659,143.198 132.025,143.198 Z" style="stroke:none;fill-rule:nonzero;fill:#000000;fill-opacity:1;"/>
        </g>
        <g id="Shape4">
            <desc shapeID="4" type="0" basicInfo-basicType="0" basicInfo-roundedRectRadius="12" basicInfo-polygonSides="6" basicInfo-starPoints="5" bounding="rect(-18.607,-38.122,37.214,76.244)" text="" font-familyName="" font-pixelSize="20" font-bold="0" font-underline="0" font-alignment="1" strokeStyle="0" markerStart="0" markerEnd="0" shadowEnabled="0" shadowOffsetX="0" shadowOffsetY="2" shadowBlur="4" shadowOpacity="160" blurEnabled="0" blurRadius="4" transform="matrix(1,0,0,1,123.476,105.1)" pers-center="0,0" pers-size="0,0" pers-start="0,0" pers-end="0,0" locked="0" mesh="" flag=""/>
            <path id="shapePath4" d="M130.562,67.028 L130.562,85.474 L142.036,85.474 L142.036,96.046 L130.562,96.046 L130.562,122.364 C130.562,124.728 130.452,126.077 131.013,127.089 C132.025,129.001 134.724,129.001 135.062,129.001 C137.085,129.001 139.111,128.888 141.134,128.888 L141.134,142.273 C140.011,142.497 135.96,143.172 132.025,143.172 C130.788,143.172 129.55,143.172 128.425,143.06 C126.851,142.948 121.677,143.06 117.74,139.459 C113.242,135.524 113.466,129.563 113.466,124.164 L113.466,95.934 L104.919,95.934 L104.919,85.362 L113.466,85.362 L113.466,67.028 L130.562,67.028 M130.612,66.978 L130.562,66.978 L113.466,66.978 L113.416,66.978 L113.416,67.028 L113.416,85.312 L104.919,85.312 L104.869,85.312 L104.869,85.362 L104.869,95.935 L104.869,95.985 L104.919,95.985 L113.416,95.985 L113.416,124.165 C113.416,124.408 113.416,124.652 113.415,124.898 C113.405,130.221 113.395,135.725 117.707,139.498 C121.282,142.768 125.906,142.988 127.88,143.081 C128.09,143.091 128.271,143.1 128.421,143.11 C129.547,143.222 130.806,143.222 132.024,143.222 C135.661,143.222 139.579,142.633 141.143,142.322 L141.183,142.314 L141.183,142.273 L141.183,128.888 L141.183,128.838 L141.133,128.838 C140.121,128.838 139.091,128.866 138.095,128.894 C137.1,128.922 136.072,128.951 135.06,128.951 C134.354,128.951 131.981,128.815 131.055,127.065 C130.584,126.215 130.592,125.141 130.605,123.36 C130.607,123.049 130.609,122.717 130.609,122.363 L130.609,96.096 L142.033,96.096 L142.083,96.096 L142.083,96.046 L142.083,85.474 L142.083,85.424 L142.033,85.424 L130.609,85.424 L130.609,67.028 L130.609,66.978 L130.612,66.978 Z" style="stroke:none;fill-rule:nonzero;fill:#ffffff;fill-opacity:1;"/>
        </g>
        <g id="Shape5">
            <desc shapeID="5" type="0" basicInfo-basicType="0" basicInfo-roundedRectRadius="12" basicInfo-polygonSides="6" basicInfo-starPoints="5" bounding="rect(-29.805,-31.3235,59.61,62.647)" text="" font-familyName="" font-pixelSize="20" font-bold="0" font-underline="0" font-alignment="1" strokeStyle="0" markerStart="0" markerEnd="0" shadowEnabled="0" shadowOffsetX="0" shadowOffsetY="2" shadowBlur="4" shadowOpacity="160" blurEnabled="0" blurRadius="4" transform="matrix(1,0,0,1,172.401,113.535)" pers-center="0,0" pers-size="0,0" pers-start="0,0" pers-end="0,0" locked="0" mesh="" flag=""/>
            <path id="shapePath5" d="M160.253,116.966 C160.253,117.528 160.14,118.878 160.477,120.452 C161.828,127.313 166.664,131.587 173.638,131.587 C174.649,131.587 176.899,131.476 179.261,130.575 C185.108,128.552 187.696,122.589 188.483,121.128 L201.53,127.876 C199.17,131.362 197.931,132.937 196.582,134.513 C187.922,144.071 176.676,144.859 172.289,144.859 C170.487,144.859 166.328,144.747 161.717,143.284 C148.67,139.235 142.596,127.763 142.596,114.491 C142.596,110.894 142.82,99.983 150.131,91.548 C153.73,87.499 159.916,82.212 172.737,82.212 C176.675,82.212 188.371,82.661 195.682,92.897 C202.317,102.007 202.093,114.155 202.206,116.966 L160.253,116.966 M177.911,95.708 C175.55,94.585 173.638,94.585 172.624,94.585 C165.765,94.585 162.613,99.646 161.716,101.671 C161.265,102.683 160.815,103.919 160.366,106.169 L184.32,106.169 C184.097,104.257 183.759,98.296 177.911,95.708 Z" style="stroke:#ffffff;stroke-opacity:1;stroke-width:0.05;stroke-linejoin:miter;stroke-miterlimit:2;stroke-linecap:butt;fill-rule:nonzero;fill:#000000;fill-opacity:1;"/>
        </g>
        <g id="Shape6">
            <desc shapeID="6" type="0" basicInfo-basicType="0" basicInfo-roundedRectRadius="12" basicInfo-polygonSides="6" basicInfo-starPoints="5" bounding="rect(-16.258,-29.717,32.516,59.434)" text="" font-familyName="" font-pixelSize="20" font-bold="0" font-underline="0" font-alignment="1" strokeStyle="0" markerStart="0" markerEnd="0" shadowEnabled="0" shadowOffsetX="0" shadowOffsetY="2" shadowBlur="4" shadowOpacity="160" blurEnabled="0" blurRadius="4" transform="matrix(1,0,0,1,223.836,113.029)" pers-center="0,0" pers-size="0,0" pers-start="0,0" pers-end="0,0" locked="0" mesh="" flag=""/>
            <path id="shapePath6" d="M207.603,142.746 L207.578,84.012 L224.361,83.987 L224.386,90.085 L224.84,89.641 C226.163,88.499 227.81,87.077 231.212,85.675 C235.996,83.739 237.974,83.531 240.066,83.312 L240.094,98.634 L235.612,99.557 C235.509,99.578 235.336,99.606 235.108,99.642 C234.087,99.807 231.962,100.15 230.218,100.793 C225.694,102.338 224.836,105.1 224.836,109.655 L224.836,142.746 L207.603,142.746 Z" style="stroke:none;fill-rule:nonzero;fill:#000000;fill-opacity:1;"/>
        </g>
        <g id="Shape7">
            <desc shapeID="7" type="0" basicInfo-basicType="0" basicInfo-roundedRectRadius="12" basicInfo-polygonSides="6" basicInfo-starPoints="5" bounding="rect(-16.2835,-29.7445,32.567,59.489)" text="" font-familyName="" font-pixelSize="20" font-bold="0" font-underline="0" font-alignment="1" strokeStyle="0" markerStart="0" markerEnd="0" shadowEnabled="0" shadowOffsetX="0" shadowOffsetY="2" shadowBlur="4" shadowOpacity="160" blurEnabled="0" blurRadius="4" transform="matrix(1,0,0,1,223.836,113.025)" pers-center="0,0" pers-size="0,0" pers-start="0,0" pers-end="0,0" locked="0" mesh="" flag=""/>
            <path id="shapePath7" d="M240.07,83.337 L240.07,98.634 L235.608,99.532 C235.046,99.645 232.346,99.983 230.211,100.77 C225.6,102.345 224.813,105.268 224.813,109.655 L224.813,142.72 L207.604,142.72 L207.604,84.012 L224.362,84.012 L224.362,90.085 C225.826,88.848 227.399,87.274 231.223,85.698 C235.947,83.786 237.933,83.561 240.07,83.337 M240.119,83.281 L240.064,83.287 C237.968,83.507 235.99,83.714 231.203,85.652 C227.796,87.056 226.147,88.479 224.823,89.623 C224.683,89.744 224.546,89.862 224.41,89.977 L224.41,84.012 L224.41,83.962 L224.36,83.962 L207.602,83.962 L207.552,83.962 L207.552,84.012 L207.552,142.72 L207.552,142.77 L207.602,142.77 L224.811,142.77 L224.861,142.77 L224.861,142.72 L224.861,109.655 C224.861,105.111 225.716,102.357 230.226,100.817 C231.969,100.174 234.091,99.831 235.112,99.667 C235.337,99.631 235.513,99.602 235.617,99.581 L240.079,98.683 L240.119,98.675 L240.119,98.634 L240.119,83.337 L240.119,83.281 Z" style="stroke:none;fill-rule:nonzero;fill:#ffffff;fill-opacity:1;"/>
        </g>
        <g id="Shape8">
            <desc shapeID="8" type="0" basicInfo-basicType="0" basicInfo-roundedRectRadius="12" basicInfo-polygonSides="6" basicInfo-starPoints="5" bounding="rect(-16.258,-29.717,32.516,59.434)" text="" font-familyName="" font-pixelSize="20" font-bold="0" font-underline="0" font-alignment="1" strokeStyle="0" markerStart="0" markerEnd="0" shadowEnabled="0" shadowOffsetX="0" shadowOffsetY="2" shadowBlur="4" shadowOpacity="160" blurEnabled="0" blurRadius="4" transform="matrix(1,0,0,1,258.961,113.029)" pers-center="0,0" pers-size="0,0" pers-start="0,0" pers-end="0,0" locked="0" mesh="" flag=""/>
            <path id="shapePath8" d="M242.728,142.746 L242.703,84.012 L259.486,83.987 L259.511,90.085 L259.965,89.641 C261.288,88.499 262.935,87.077 266.337,85.675 C271.121,83.739 273.099,83.531 275.191,83.312 L275.219,98.634 L270.737,99.557 C270.634,99.578 270.461,99.606 270.233,99.642 C269.212,99.807 267.087,100.15 265.343,100.793 C260.819,102.338 259.961,105.1 259.961,109.655 L259.961,142.746 L242.728,142.746 Z" style="stroke:none;fill-rule:nonzero;fill:#000000;fill-opacity:1;"/>
        </g>
        <g id="Shape9">
            <desc shapeID="9" type="0" basicInfo-basicType="0" basicInfo-roundedRectRadius="12" basicInfo-polygonSides="6" basicInfo-starPoints="5" bounding="rect(-16.2835,-29.7445,32.567,59.489)" text="" font-familyName="" font-pixelSize="20" font-bold="0" font-underline="0" font-alignment="1" strokeStyle="0" markerStart="0" markerEnd="0" shadowEnabled="0" shadowOffsetX="0" shadowOffsetY="2" shadowBlur="4" shadowOpacity="160" blurEnabled="0" blurRadius="4" transform="matrix(1,0,0,1,258.961,113.025)" pers-center="0,0" pers-size="0,0" pers-start="0,0" pers-end="0,0" locked="0" mesh="" flag=""/>
            <path id="shapePath9" d="M275.195,83.337 L275.195,98.634 L270.733,99.532 C270.171,99.645 267.471,99.983 265.336,100.77 C260.725,102.345 259.938,105.268 259.938,109.655 L259.938,142.72 L242.729,142.72 L242.729,84.012 L259.487,84.012 L259.487,90.085 C260.951,88.848 262.524,87.274 266.348,85.698 C271.072,83.786 273.058,83.561 275.195,83.337 M275.244,83.281 L275.189,83.287 C273.093,83.507 271.115,83.714 266.328,85.652 C262.921,87.056 261.272,88.479 259.948,89.623 C259.808,89.744 259.671,89.862 259.535,89.977 L259.535,84.012 L259.535,83.962 L259.485,83.962 L242.727,83.962 L242.677,83.962 L242.677,84.012 L242.677,142.72 L242.677,142.77 L242.727,142.77 L259.936,142.77 L259.986,142.77 L259.986,142.72 L259.986,109.655 C259.986,105.111 260.841,102.357 265.351,100.817 C267.094,100.174 269.216,99.831 270.237,99.667 C270.462,99.631 270.638,99.602 270.742,99.581 L275.204,98.683 L275.244,98.675 L275.244,98.634 L275.244,83.337 L275.244,83.281 Z" style="stroke:none;fill-rule:nonzero;fill:#ffffff;fill-opacity:1;"/>
        </g>
        <g id="Shape10">
            <desc shapeID="10" type="0" basicInfo-basicType="0" basicInfo-roundedRectRadius="12" basicInfo-polygonSides="6" basicInfo-starPoints="5" bounding="rect(-29.8045,-31.3235,59.609,62.647)" text="" font-familyName="" font-pixelSize="20" font-bold="0" font-underline="0" font-alignment="1" strokeStyle="0" markerStart="0" markerEnd="0" shadowEnabled="0" shadowOffsetX="0" shadowOffsetY="2" shadowBlur="4" shadowOpacity="160" blurEnabled="0" blurRadius="4" transform="matrix(1,0,0,1,304.578,113.535)" pers-center="0,0" pers-size="0,0" pers-start="0,0" pers-end="0,0" locked="0" mesh="" flag=""/>
            <path id="shapePath10" d="M292.429,116.966 C292.429,117.528 292.316,118.878 292.654,120.452 C294.005,127.313 298.841,131.587 305.814,131.587 C306.826,131.587 309.076,131.476 311.437,130.575 C317.285,128.552 319.873,122.589 320.66,121.128 L333.707,127.876 C331.347,131.362 330.107,132.937 328.759,134.513 C320.099,144.071 308.853,144.859 304.466,144.859 C302.665,144.859 298.505,144.747 293.894,143.284 C280.847,139.235 274.773,127.763 274.773,114.491 C274.773,110.894 274.999,99.983 282.308,91.548 C285.908,87.499 292.093,82.212 304.915,82.212 C308.853,82.212 320.548,82.661 327.858,92.897 C334.494,102.007 334.269,114.155 334.382,116.966 L292.429,116.966 M310.087,95.708 C307.726,94.585 305.814,94.585 304.8,94.585 C297.941,94.585 294.79,99.646 293.892,101.671 C293.441,102.683 292.993,103.919 292.542,106.169 L316.496,106.169 C316.272,104.257 315.935,98.296 310.087,95.708 Z" style="stroke:#ffffff;stroke-opacity:1;stroke-width:0.05;stroke-linejoin:miter;stroke-miterlimit:2;stroke-linecap:butt;fill-rule:nonzero;fill:#000000;fill-opacity:1;"/>
        </g>
        <g id="Shape11">
            <desc shapeID="11" type="0" basicInfo-basicType="0" basicInfo-roundedRectRadius="12" basicInfo-polygonSides="6" basicInfo-starPoints="5" bounding="rect(-18.978,-40.3465,37.956,80.693)" text="" font-familyName="" font-pixelSize="20" font-bold="0" font-underline="0" font-alignment="1" strokeStyle="0" markerStart="0" markerEnd="0" shadowEnabled="0" shadowOffsetX="0" shadowOffsetY="2" shadowBlur="4" shadowOpacity="160" blurEnabled="0" blurRadius="4" transform="matrix(1,0,0,1,86.461,168.402)" pers-center="0,0" pers-size="0,0" pers-start="0,0" pers-end="0,0" locked="0" mesh="" flag=""/>
            <path id="shapePath11" d="M76.731,208.748 L76.706,161.936 L67.508,161.961 L67.483,151.363 L76.731,151.338 L76.706,144.051 C76.706,140.639 77.386,137.52 78.621,135.268 C82.171,128.576 91.587,128.056 94.389,128.056 C98.64,128.056 104.681,129.059 104.741,129.069 L104.762,142.139 L103.101,142.16 L101.648,142.156 C99.031,142.156 97.226,142.233 96.311,142.614 C94.917,143.149 94.322,144.41 94.19,145.07 C93.807,146.221 93.832,148.964 93.848,150.602 L93.853,151.365 L105.414,151.34 L105.439,161.937 L93.94,161.962 L93.965,208.749 L76.731,208.749 L76.731,208.748 Z" style="stroke:none;fill-rule:nonzero;fill:#000000;fill-opacity:1;"/>
        </g>
        <g id="Shape12">
            <desc shapeID="12" type="0" basicInfo-basicType="0" basicInfo-roundedRectRadius="12" basicInfo-polygonSides="6" basicInfo-starPoints="5" bounding="rect(-19.003,-40.371,38.006,80.742)" text="" font-familyName="" font-pixelSize="20" font-bold="0" font-underline="0" font-alignment="1" strokeStyle="0" markerStart="0" markerEnd="0" shadowEnabled="0" shadowOffsetX="0" shadowOffsetY="2" shadowBlur="4" shadowOpacity="160" blurEnabled="0" blurRadius="4" transform="matrix(1,0,0,1,86.461,168.402)" pers-center="0,0" pers-size="0,0" pers-start="0,0" pers-end="0,0" locked="0" mesh="" flag=""/>
            <path id="shapePath12" d="M94.389,128.081 C98.438,128.081 104.063,128.981 104.737,129.094 L104.737,142.139 C103.653,142.139 102.612,142.13 101.649,142.13 C99.216,142.13 97.269,142.187 96.302,142.589 C94.839,143.151 94.279,144.502 94.166,145.064 C93.716,146.415 93.828,149.9 93.828,151.364 L105.414,151.364 L105.414,161.935 L93.94,161.935 L93.94,208.722 L76.731,208.722 L76.731,161.935 L67.508,161.935 L67.508,151.363 L76.731,151.363 L76.731,144.051 C76.731,143.153 76.731,138.766 78.643,135.28 C81.567,129.768 88.877,128.081 94.389,128.081 M94.389,128.031 C91.244,128.031 88.097,128.576 85.528,129.567 C82.266,130.824 79.935,132.738 78.599,135.257 C77.362,137.511 76.681,140.635 76.681,144.051 L76.681,151.314 L67.508,151.314 L67.458,151.314 L67.458,151.364 L67.458,161.936 L67.458,161.986 L67.508,161.986 L76.681,161.986 L76.681,208.723 L76.681,208.773 L76.731,208.773 L93.94,208.773 L93.99,208.773 L93.99,208.723 L93.99,161.986 L105.414,161.986 L105.464,161.986 L105.464,161.936 L105.464,151.365 L105.464,151.315 L105.414,151.315 L93.877,151.315 C93.877,151.11 93.875,150.869 93.872,150.602 C93.856,148.965 93.831,146.225 94.212,145.081 C94.228,145.003 94.587,143.304 96.318,142.638 C97.329,142.217 99.505,142.181 101.647,142.181 C102.115,142.181 102.6,142.183 103.1,142.185 C103.63,142.187 104.177,142.189 104.735,142.189 L104.785,142.189 L104.785,142.139 L104.785,129.094 L104.785,129.052 L104.743,129.045 C104.684,129.034 98.641,128.031 94.389,128.031 Z" style="stroke:none;fill-rule:nonzero;fill:#ffffff;fill-opacity:1;"/>
        </g>
        <g id="Shape13">
            <desc shapeID="13" type="0" basicInfo-basicType="0" basicInfo-roundedRectRadius="12" basicInfo-polygonSides="6" basicInfo-starPoints="5" bounding="rect(-29.805,-31.324,59.61,62.648)" text="" font-familyName="" font-pixelSize="20" font-bold="0" font-underline="0" font-alignment="1" strokeStyle="0" markerStart="0" markerEnd="0" shadowEnabled="0" shadowOffsetX="0" shadowOffsetY="2" shadowBlur="4" shadowOpacity="160" blurEnabled="0" blurRadius="4" transform="matrix(1,0,0,1,135.104,179.538)" pers-center="0,0" pers-size="0,0" pers-start="0,0" pers-end="0,0" locked="0" mesh="" flag=""/>
            <path id="shapePath13" d="M122.956,182.966 C122.956,183.528 122.843,184.878 123.18,186.452 C124.53,193.312 129.367,197.587 136.341,197.587 C137.352,197.587 139.602,197.477 141.964,196.575 C147.811,194.552 150.399,188.589 151.186,187.128 L164.233,193.876 C161.873,197.361 160.634,198.938 159.285,200.514 C150.625,210.073 139.379,210.862 134.992,210.862 C133.19,210.862 129.03,210.749 124.42,209.286 C111.373,205.237 105.299,193.765 105.299,180.493 C105.299,176.895 105.523,165.985 112.834,157.55 C116.433,153.501 122.619,148.214 135.44,148.214 C139.378,148.214 151.073,148.663 158.385,158.9 C165.02,168.009 164.796,180.159 164.909,182.968 L122.956,182.966 M140.614,161.708 C138.254,160.585 136.342,160.585 135.328,160.585 C128.469,160.585 125.317,165.647 124.42,167.671 C123.969,168.684 123.519,169.919 123.069,172.169 L147.024,172.169 C146.8,170.257 146.462,164.296 140.614,161.708 Z" style="stroke:#ffffff;stroke-opacity:1;stroke-width:0.05;stroke-linejoin:miter;stroke-miterlimit:2;stroke-linecap:butt;fill-rule:nonzero;fill:#000000;fill-opacity:1;"/>
        </g>
        <g id="Shape14">
            <desc shapeID="14" type="0" basicInfo-basicType="0" basicInfo-roundedRectRadius="12" basicInfo-polygonSides="6" basicInfo-starPoints="5" bounding="rect(-16.896,-29.717,33.792,59.434)" text="" font-familyName="" font-pixelSize="20" font-bold="0" font-underline="0" font-alignment="1" strokeStyle="0" markerStart="0" markerEnd="0" shadowEnabled="0" shadowOffsetX="0" shadowOffsetY="2" shadowBlur="4" shadowOpacity="160" blurEnabled="0" blurRadius="4" transform="matrix(1,0,0,1,187.177,179.03)" pers-center="0,0" pers-size="0,0" pers-start="0,0" pers-end="0,0" locked="0" mesh="" flag=""/>
            <path id="shapePath14" d="M170.306,208.746 L170.281,150.012 L187.064,149.987 L187.089,156.085 L187.541,155.644 C188.864,154.5 190.511,153.079 193.916,151.675 C198.317,149.894 201.489,149.572 203.587,149.36 L204.046,149.313 L204.073,164.634 L198.316,165.558 C198.215,165.579 198.044,165.606 197.817,165.643 C196.796,165.807 194.67,166.151 192.923,166.794 C188.398,168.34 187.54,171.101 187.54,175.656 L187.54,208.747 L170.306,208.747 L170.306,208.746 Z" style="stroke:none;fill-rule:nonzero;fill:#000000;fill-opacity:1;"/>
        </g>
        <g id="Shape15">
            <desc shapeID="15" type="0" basicInfo-basicType="0" basicInfo-roundedRectRadius="12" basicInfo-polygonSides="6" basicInfo-starPoints="5" bounding="rect(-16.921,-29.7455,33.842,59.491)" text="" font-familyName="" font-pixelSize="20" font-bold="0" font-underline="0" font-alignment="1" strokeStyle="0" markerStart="0" markerEnd="0" shadowEnabled="0" shadowOffsetX="0" shadowOffsetY="2" shadowBlur="4" shadowOpacity="160" blurEnabled="0" blurRadius="4" transform="matrix(1,0,0,1,187.177,179.025)" pers-center="0,0" pers-size="0,0" pers-start="0,0" pers-end="0,0" locked="0" mesh="" flag=""/>
            <path id="shapePath15" d="M204.048,149.336 L204.048,164.633 L198.312,165.532 C197.75,165.644 195.05,165.982 192.915,166.769 C188.303,168.344 187.516,171.267 187.516,175.655 L187.516,208.72 L170.307,208.72 L170.307,150.011 L187.065,150.011 L187.065,156.083 C188.528,154.847 190.102,153.272 193.926,151.696 C198.65,149.785 201.912,149.561 204.048,149.336 M204.098,149.28 L204.043,149.286 C203.896,149.302 203.743,149.317 203.584,149.333 C201.484,149.547 198.311,149.868 193.907,151.651 C190.498,153.055 188.849,154.479 187.525,155.623 C187.386,155.743 187.25,155.861 187.114,155.976 L187.114,150.012 L187.114,149.962 L187.064,149.962 L170.306,149.962 L170.256,149.962 L170.256,150.012 L170.256,208.721 L170.256,208.771 L170.306,208.771 L187.515,208.771 L187.565,208.771 L187.565,208.721 L187.565,175.656 C187.565,171.112 188.42,168.358 192.931,166.817 C194.678,166.173 196.801,165.832 197.822,165.667 C198.044,165.631 198.22,165.603 198.322,165.582 L204.056,164.684 L204.098,164.677 L204.098,164.634 L204.098,149.337 L204.098,149.28 Z" style="stroke:none;fill-rule:nonzero;fill:#ffffff;fill-opacity:1;"/>
        </g>
        <g id="Shape16">
            <desc shapeID="16" type="0" basicInfo-basicType="0" basicInfo-roundedRectRadius="12" basicInfo-polygonSides="6" basicInfo-starPoints="5" bounding="rect(-42.822,-30.168,85.644,60.336)" text="" font-familyName="" font-pixelSize="20" font-bold="0" font-underline="0" font-alignment="1" strokeStyle="0" markerStart="0" markerEnd="0" shadowEnabled="0" shadowOffsetX="0" shadowOffsetY="2" shadowBlur="4" shadowOpacity="160" blurEnabled="0" blurRadius="4" transform="matrix(1,0,0,1,250.783,178.58)" pers-center="0,0" pers-size="0,0" pers-start="0,0" pers-end="0,0" locked="0" mesh="" flag=""/>
            <path id="shapePath16" d="M276.366,208.748 L276.341,177.906 C276.341,171.745 276.341,168.351 274.771,165.885 C273.545,163.842 270.994,162.524 268.269,162.524 C266.672,162.524 262.734,162.927 260.643,166.67 C259.398,168.851 259.401,171.118 259.409,175.636 L259.411,208.723 L242.177,208.748 L242.152,173.857 C242.152,168.126 241.336,165.753 238.791,164.092 C237.413,163.138 235.668,162.634 233.743,162.634 C232.994,162.634 230.715,162.634 228.809,164.091 C225.108,166.867 225.108,171.687 225.108,175.206 L225.108,208.722 L207.986,208.747 L207.961,150.013 L225.083,149.988 L225.221,156.086 C226.168,154.859 226.84,154.065 228.105,153.029 C231.991,149.923 236.447,148.412 241.729,148.412 C243.43,148.412 249.3,148.615 253.44,151.228 C255.252,152.362 256.733,153.845 258.167,155.281 C260.329,153.432 261.123,152.878 262.298,152.129 C264.569,150.741 269.314,148.412 275.583,148.412 C282.134,148.412 287.493,150.693 290.674,154.834 C293.492,158.328 293.605,161.936 293.605,170.482 L293.605,208.748 L276.366,208.748 Z" style="stroke:none;fill-rule:nonzero;fill:#000000;fill-opacity:1;"/>
        </g>
        <g id="Shape17">
            <desc shapeID="17" type="0" basicInfo-basicType="0" basicInfo-roundedRectRadius="12" basicInfo-polygonSides="6" basicInfo-starPoints="5" bounding="rect(-42.8455,-30.1925,85.691,60.385)" text="" font-familyName="" font-pixelSize="20" font-bold="0" font-underline="0" font-alignment="1" strokeStyle="0" markerStart="0" markerEnd="0" shadowEnabled="0" shadowOffsetX="0" shadowOffsetY="2" shadowBlur="4" shadowOpacity="160" blurEnabled="0" blurRadius="4" transform="matrix(1,0,0,1,250.779,178.581)" pers-center="0,0" pers-size="0,0" pers-start="0,0" pers-end="0,0" locked="0" mesh="" flag=""/>
            <path id="shapePath17" d="M275.58,148.438 C277.604,148.438 285.813,148.551 290.651,154.85 C293.463,158.336 293.576,162.047 293.576,170.483 L293.576,208.723 L276.366,208.723 L276.366,177.907 C276.366,171.833 276.366,168.345 274.792,165.872 C273.441,163.622 270.743,162.499 268.269,162.499 C266.806,162.499 262.757,162.835 260.622,166.659 C259.271,169.022 259.386,171.494 259.386,176.782 L259.386,208.723 L242.177,208.723 L242.177,173.858 C242.177,168.233 241.389,165.759 238.804,164.073 C237.341,163.059 235.542,162.61 233.742,162.61 C232.955,162.61 230.705,162.61 228.793,164.073 C225.194,166.772 225.082,171.384 225.082,175.208 L225.082,208.724 L207.985,208.724 L207.985,150.015 L225.082,150.015 L225.194,156.087 C226.207,154.851 226.881,154.064 228.119,153.05 C230.369,151.251 234.641,148.439 241.727,148.439 C243.078,148.439 249.149,148.552 253.424,151.251 C255.223,152.376 256.686,153.837 258.147,155.3 C260.285,153.501 261.073,152.939 262.309,152.152 C264.334,150.912 269.17,148.438 275.58,148.438 M275.58,148.388 C269.305,148.388 264.555,150.719 262.282,152.108 C261.111,152.854 260.319,153.407 258.149,155.232 C256.725,153.805 255.251,152.335 253.45,151.209 C249.305,148.592 243.429,148.389 241.726,148.389 C236.438,148.389 231.977,149.901 228.086,153.011 C226.857,154.018 226.187,154.797 225.24,155.95 L225.13,150.013 L225.129,149.964 L225.08,149.964 L207.983,149.964 L207.933,149.964 L207.933,150.014 L207.933,208.723 L207.933,208.773 L207.983,208.773 L225.08,208.773 L225.13,208.773 L225.13,208.723 L225.13,175.207 C225.13,171.693 225.13,166.881 228.821,164.112 C230.719,162.659 232.993,162.659 233.74,162.659 C235.66,162.659 237.4,163.162 238.773,164.113 C241.31,165.768 242.125,168.136 242.125,173.857 L242.125,208.722 L242.125,208.772 L242.175,208.772 L259.384,208.772 L259.434,208.772 L259.434,208.722 L259.434,176.781 C259.434,176.384 259.434,176.002 259.433,175.635 C259.425,171.121 259.421,168.857 260.663,166.682 C262.748,162.951 266.676,162.547 268.267,162.547 C270.983,162.547 273.527,163.861 274.747,165.896 C276.314,168.359 276.314,171.75 276.314,177.906 L276.314,208.722 L276.314,208.772 L276.364,208.772 L293.574,208.772 L293.624,208.772 L293.624,208.722 L293.624,170.482 C293.624,161.929 293.512,158.319 290.688,154.818 C287.506,150.672 282.139,148.388 275.58,148.388 Z" style="stroke:none;fill-rule:nonzero;fill:#ffffff;fill-opacity:1;"/>
        </g>
        <g id="Shape18">
            <desc shapeID="18" type="0" basicInfo-basicType="0" basicInfo-roundedRectRadius="12" basicInfo-polygonSides="6" basicInfo-starPoints="5" bounding="rect(-29.8045,-31.324,59.609,62.648)" text="" font-familyName="" font-pixelSize="20" font-bold="0" font-underline="0" font-alignment="1" strokeStyle="0" markerStart="0" markerEnd="0" shadowEnabled="0" shadowOffsetX="0" shadowOffsetY="2" shadowBlur="4" shadowOpacity="160" blurEnabled="0" blurRadius="4" transform="matrix(1,0,0,1,327.88,179.538)" pers-center="0,0" pers-size="0,0" pers-start="0,0" pers-end="0,0" locked="0" mesh="" flag=""/>
            <path id="shapePath18" d="M315.731,182.966 C315.731,183.528 315.618,184.878 315.955,186.452 C317.307,193.312 322.143,197.587 329.116,197.587 C330.129,197.587 332.379,197.477 334.739,196.575 C340.588,194.552 343.176,188.589 343.963,187.128 L357.01,193.876 C354.649,197.361 353.409,198.938 352.061,200.514 C343.401,210.073 332.155,210.862 327.768,210.862 C325.967,210.862 321.807,210.749 317.196,209.286 C304.149,205.237 298.075,193.765 298.075,180.493 C298.075,176.895 298.301,165.985 305.61,157.55 C309.211,153.501 315.395,148.214 328.217,148.214 C332.155,148.214 343.85,148.663 351.16,158.9 C357.797,168.009 357.571,180.159 357.684,182.968 L315.731,182.966 M333.39,161.708 C331.029,160.585 329.117,160.585 328.103,160.585 C321.244,160.585 318.093,165.647 317.195,167.671 C316.744,168.684 316.296,169.919 315.845,172.169 L339.8,172.169 C339.574,170.257 339.237,164.296 333.39,161.708 Z" style="stroke:#ffffff;stroke-opacity:1;stroke-width:0.05;stroke-linejoin:miter;stroke-miterlimit:2;stroke-linecap:butt;fill-rule:nonzero;fill:#000000;fill-opacity:1;"/>
        </g>
    </g>
</svg>
