<?xml version="1.0" encoding="utf-8"?>
<!-- Generator: Adobe Illustrator 15.0.2, SVG Export Plug-In . SVG Version: 6.00 Build 0)  -->
<!DOCTYPE svg PUBLIC "-//W3C//DTD SVG 1.1//EN" "http://www.w3.org/Graphics/SVG/1.1/DTD/svg11.dtd">
<svg version="1.1" id="Calque_1" xmlns="http://www.w3.org/2000/svg" xmlns:xlink="http://www.w3.org/1999/xlink" x="0px" y="0px"
	 width="425.196px" height="283.465px" viewBox="0 0 425.196 283.465" enable-background="new 0 0 425.196 283.465"
	 xml:space="preserve">
<path fill="#FFFFFF" d="M400.503,53.842V36.635h-9.861v-9.531h-17.207v9.531H52.196v-9.531H34.989v9.531H24.692v17.207h10.297
	v175.42H24.692v17.207h10.297v9.893h17.207v-9.893h321.239v9.893h17.207v-9.893h9.861v-17.207h-9.861V53.842H400.503z
	 M373.435,229.262H52.197V53.842h321.238V229.262z"/>
<g>
	<defs>
		<rect id="SVGID_1_" width="425.196" height="283.465"/>
	</defs>
	<clipPath id="SVGID_2_">
		<use xlink:href="#SVGID_1_"  overflow="visible"/>
	</clipPath>
	<path clip-path="url(#SVGID_2_)" fill="#FFFFFF" d="M130.562,96.046v26.318c0,2.364-0.111,3.713,0.451,4.725
		c1.012,1.912,3.711,1.912,4.049,1.912c2.023,0,4.049-0.113,6.072-0.113v13.385c-1.123,0.224-5.174,0.9-9.109,0.9
		c-1.238,0-2.475,0-3.6-0.113c-1.574-0.112-6.748,0-10.685-3.6c-4.498-3.935-4.274-9.896-4.274-15.295v-28.23h-8.547V85.362h8.547
		V67.028h17.096v18.446h11.473v10.572H130.562z"/>
	<path clip-path="url(#SVGID_2_)" fill="#FFFFFF" d="M160.253,116.966c0,0.562-0.113,1.912,0.224,3.486
		c1.35,6.861,6.186,11.135,13.161,11.135c1.011,0,3.261-0.111,5.623-1.012c5.847-2.023,8.435-7.986,9.222-9.447l13.047,6.748
		c-2.361,3.486-3.599,5.061-4.949,6.637c-8.66,9.558-19.906,10.347-24.293,10.347c-1.801,0-5.961-0.113-10.572-1.576
		c-13.047-4.049-19.121-15.521-19.121-28.793c0-3.597,0.224-14.508,7.535-22.943c3.599-4.049,9.785-9.336,22.607-9.336
		c3.938,0,15.633,0.449,22.945,10.685c6.635,9.11,6.411,21.258,6.524,24.069H160.253z M177.911,95.708
		c-2.361-1.123-4.273-1.123-5.287-1.123c-6.859,0-10.01,5.061-10.908,7.086c-0.451,1.012-0.901,2.248-1.35,4.498h23.955
		C184.097,104.257,183.759,98.296,177.911,95.708"/>
	<path clip-path="url(#SVGID_2_)" fill="#FFFFFF" d="M235.608,99.532c-0.563,0.113-3.262,0.451-5.398,1.238
		c-4.611,1.575-5.398,4.498-5.398,8.885v33.066h-17.209V84.012h16.758v6.073c1.463-1.237,3.037-2.811,6.861-4.387
		c4.725-1.912,6.711-2.137,8.848-2.361v15.297L235.608,99.532z"/>
	<path clip-path="url(#SVGID_2_)" fill="#FFFFFF" d="M270.733,99.532c-0.563,0.113-3.262,0.451-5.398,1.238
		c-4.611,1.575-5.398,4.498-5.398,8.885v33.066h-17.209V84.012h16.758v6.073c1.463-1.237,3.037-2.811,6.861-4.387
		c4.725-1.912,6.711-2.137,8.848-2.361v15.297L270.733,99.532z"/>
	<path clip-path="url(#SVGID_2_)" fill="#FFFFFF" d="M292.429,116.966c0,0.562-0.113,1.912,0.225,3.486
		c1.35,6.861,6.186,11.135,13.16,11.135c1.012,0,3.262-0.111,5.623-1.012c5.848-2.023,8.436-7.986,9.223-9.447l13.047,6.748
		c-2.361,3.486-3.6,5.061-4.949,6.637c-8.66,9.558-19.906,10.347-24.293,10.347c-1.801,0-5.961-0.113-10.572-1.576
		c-13.047-4.049-19.121-15.521-19.121-28.793c0-3.597,0.225-14.508,7.535-22.943c3.6-4.049,9.785-9.336,22.607-9.336
		c3.938,0,15.633,0.449,22.944,10.685c6.636,9.11,6.411,21.258,6.524,24.069H292.429z M310.087,95.708
		c-2.361-1.123-4.273-1.123-5.287-1.123c-6.859,0-10.01,5.061-10.908,7.086c-0.451,1.012-0.9,2.248-1.35,4.498h23.955
		C316.272,104.257,315.935,98.296,310.087,95.708"/>
	<path clip-path="url(#SVGID_2_)" fill="#FFFFFF" d="M93.94,161.935v46.787H76.731v-46.787h-9.223v-10.572h9.223v-7.312
		c0-0.898,0-5.285,1.912-8.771c2.924-5.512,10.234-7.199,15.746-7.199c4.049,0,9.674,0.9,10.348,1.013v13.045
		c-3.824,0-7.086-0.111-8.436,0.451c-1.463,0.563-2.023,1.913-2.136,2.475c-0.45,1.35-0.338,4.836-0.338,6.299h11.586v10.572H93.94z
		"/>
	<path clip-path="url(#SVGID_2_)" fill="#FFFFFF" d="M122.956,182.966c0,0.562-0.113,1.912,0.224,3.486
		c1.35,6.861,6.186,11.135,13.161,11.135c1.011,0,3.261-0.111,5.623-1.012c5.847-2.023,8.435-7.986,9.222-9.447l13.047,6.748
		c-2.361,3.486-3.599,5.062-4.949,6.637c-8.66,9.559-19.906,10.348-24.293,10.348c-1.801,0-5.961-0.113-10.572-1.576
		c-13.047-4.049-19.121-15.521-19.121-28.793c0-3.597,0.224-14.508,7.535-22.943c3.599-4.049,9.785-9.336,22.607-9.336
		c3.938,0,15.633,0.449,22.945,10.686c6.635,9.109,6.411,21.258,6.524,24.068H122.956z M140.614,161.708
		c-2.361-1.123-4.273-1.123-5.287-1.123c-6.859,0-10.01,5.062-10.908,7.086c-0.451,1.012-0.901,2.248-1.35,4.498h23.955
		C146.8,170.257,146.462,164.296,140.614,161.708"/>
	<path clip-path="url(#SVGID_2_)" fill="#FFFFFF" d="M198.312,165.532c-0.563,0.113-3.262,0.451-5.398,1.238
		c-4.612,1.575-5.399,4.498-5.399,8.885v33.066h-17.209v-58.709h16.758v6.072c1.463-1.236,3.037-2.811,6.861-4.387
		c4.725-1.912,7.987-2.137,10.123-2.361v15.297L198.312,165.532z"/>
	<path clip-path="url(#SVGID_2_)" fill="#FFFFFF" d="M276.366,208.722v-30.816c0-6.074,0-9.561-1.574-12.035
		c-1.35-2.25-4.049-3.373-6.523-3.373c-1.463,0-5.512,0.336-7.648,4.16c-1.35,2.363-1.236,4.835-1.236,10.123v31.941h-17.209
		v-34.865c0-5.625-0.788-8.098-3.373-9.785c-1.463-1.014-3.262-1.463-5.062-1.463c-0.787,0-3.037,0-4.949,1.463
		c-3.598,2.699-3.711,7.311-3.711,11.135v33.516h-17.096v-58.709h17.096l0.113,6.072c1.012-1.236,1.686-2.023,2.924-3.037
		c2.25-1.799,6.523-4.611,13.609-4.611c1.35,0,7.422,0.113,11.697,2.812c1.799,1.125,3.262,2.586,4.723,4.049
		c2.137-1.799,2.926-2.361,4.162-3.148c2.025-1.239,6.861-3.713,13.271-3.713c2.025,0,10.234,0.113,15.072,6.412
		c2.811,3.486,2.924,7.197,2.924,15.633v38.24H276.366z"/>
	<path clip-path="url(#SVGID_2_)" fill="#FFFFFF" d="M315.731,182.966c0,0.562-0.113,1.912,0.224,3.486
		c1.351,6.861,6.187,11.135,13.161,11.135c1.012,0,3.262-0.111,5.623-1.012c5.848-2.023,8.436-7.986,9.223-9.447l13.047,6.748
		c-2.361,3.486-3.6,5.062-4.949,6.637c-8.66,9.559-19.906,10.348-24.293,10.348c-1.801,0-5.961-0.113-10.572-1.576
		c-13.047-4.049-19.121-15.521-19.121-28.793c0-3.597,0.225-14.508,7.535-22.943c3.6-4.049,9.785-9.336,22.607-9.336
		c3.938,0,15.633,0.449,22.944,10.686c6.636,9.109,6.411,21.258,6.524,24.068H315.731z M333.39,161.708
		c-2.361-1.123-4.273-1.123-5.287-1.123c-6.859,0-10.01,5.062-10.908,7.086c-0.451,1.012-0.9,2.248-1.35,4.498H339.8
		C339.575,170.257,339.237,164.296,333.39,161.708"/>
</g>
</svg>
